PathFileType	4	(X/Y/Z)	TVC_41_Cal_03_0_static_RCNL2025.trc
DataRate	CameraRate	NumFrames	NumMarkers	Units	OrigDataRate	OrigDataStartFrame	OrigNumFrames
100	100	5	27	mm	100	147	234
Frame#	Time	R_Shoulder			L_Shoulder			C7			J_Notch			R_Elbow			L_Elbow			R_Wrist			L_Wrist			R_Asis			L_Asis			R_Psis			L_Psis			Sacral			Thoracic			Sternum			R_Thigh_Lateral			R_Knee_Lateral			R_Shank_Lateral			R_Ankle_Lateral			R_Heel			R_Toe			L_Thigh_Lateral			L_Knee_Lateral			L_Shank_Lateral			L_Ankle_Lateral			L_Heel			L_Toe		
		X1	Y1	Z1	X2	Y2	Z2	X3	Y3	Z3	X4	Y4	Z4	X5	Y5	Z5	X6	Y6	Z6	X7	Y7	Z7	X8	Y8	Z8	X9	Y9	Z9	X10	Y10	Z10	X11	Y11	Z11	X12	Y12	Z12	X13	Y13	Z13	X14	Y14	Z14	X15	Y15	Z15	X16	Y16	Z16	X17	Y17	Z17	X18	Y18	Z18	X19	Y19	Z19	X20	Y20	Z20	X21	Y21	Z21	X22	Y22	Z22	X23	Y23	Z23	X24	Y24	Z24	X25	Y25	Z25	X26	Y26	Z26	X27	Y27	Z27
147	1.46000000	-277.140350	1277.968628	-69.864769	-284.487793	1249.924805	-405.867493	-354.677887	1310.483276	-235.313217	-218.349060	1222.165649	-229.822739	-241.892075	987.690674	-12.395531	-297.541809	951.707153	-446.460602	-183.660408	785.070618	-25.509271	-224.098785	758.481781	-455.127579	-221.558197	859.577942	-86.988503	-223.246429	859.852295	-331.259613	-357.233948	882.582886	-154.155472	-394.094696	884.167664	-242.345734	-375.664322	883.375275	-198.250603	-359.838409	1014.285767	-216.758911	-167.674988	1046.942993	-229.116852	-270.138397	640.801697	6.058393	-262.208435	412.753906	-58.073582	-296.221954	286.440643	-1.295977	-282.145844	73.509361	-65.149933	-317.904358	45.909363	-121.377808	-172.932892	45.577808	-40.077869	-315.528595	593.361267	-417.194061	-308.805542	409.363892	-339.797180	-313.851166	269.798767	-379.472198	-338.037476	66.744614	-300.249908	-376.043457	43.838486	-258.407013	-212.446411	39.317039	-289.285431
148	1.47000000	-276.940125	1277.949951	-69.883453	-284.511444	1249.869019	-405.910522	-354.497223	1310.468750	-235.341095	-218.246536	1222.110840	-229.952774	-241.784637	987.683472	-12.500476	-297.428833	951.628113	-446.523407	-183.554512	785.065765	-25.535249	-224.072121	758.419098	-455.025162	-221.487061	859.568298	-87.077240	-223.333420	859.801025	-331.175934	-357.148193	882.573853	-154.218063	-394.062744	884.255676	-242.331100	-375.605469	883.414764	-198.274582	-359.735718	1014.239990	-216.828979	-167.633896	1046.935913	-229.145111	-269.848785	640.873840	6.105451	-262.166534	412.769226	-58.079792	-296.062469	286.446045	-1.336239	-282.196960	73.429375	-65.158852	-317.878540	45.806229	-121.347557	-172.911392	45.524223	-40.265553	-315.591125	593.366150	-417.178223	-308.872345	409.320282	-339.784180	-313.944153	269.775635	-379.454163	-338.099884	66.711517	-300.150970	-376.080658	43.817776	-258.351349	-212.453598	39.311066	-289.315247
149	1.48000000	-276.797577	1277.983032	-69.944267	-284.526855	1249.878906	-405.936462	-354.508514	1310.515259	-235.317551	-217.839661	1222.408325	-230.732086	-241.534637	987.670105	-12.596966	-297.447174	951.628296	-446.373535	-183.347710	784.989777	-25.523643	-224.084137	758.533875	-455.019501	-221.427353	859.485535	-87.147980	-223.290436	859.810852	-331.275299	-357.030853	882.529541	-154.041855	-394.027985	884.164795	-242.358047	-375.529419	883.347168	-198.199951	-359.698059	1014.252014	-216.750168	-167.386444	1047.155518	-229.519257	-269.600708	640.973755	6.146481	-262.100677	412.717712	-58.130180	-295.975647	286.432922	-1.360369	-282.187592	73.453117	-65.140099	-317.890015	45.862930	-121.394028	-172.905273	45.481144	-40.357891	-315.595581	593.339233	-417.207733	-308.942719	409.337219	-339.785095	-314.391724	269.729584	-379.040955	-338.012573	66.501816	-300.082520	-376.064392	43.837540	-258.365570	-212.500580	39.332623	-289.415405
150	1.49000000	-276.644867	1277.964600	-70.009918	-284.599152	1249.767334	-405.946655	-354.447388	1310.517090	-235.352478	-218.025604	1222.116089	-230.238785	-241.418472	987.683777	-12.470143	-297.445404	951.617371	-446.367889	-183.448105	784.989410	-25.556943	-224.063248	758.505127	-455.009308	-221.272949	859.598145	-87.185852	-223.218140	859.761169	-331.390289	-356.967255	882.459045	-153.945007	-393.970856	884.225830	-242.280319	-375.469055	883.342438	-198.112663	-359.703461	1014.255554	-216.736542	-167.503754	1046.914551	-229.307709	-269.571991	640.941223	6.098666	-262.008057	412.732269	-58.109001	-296.000610	286.482452	-1.372171	-282.210846	73.434067	-65.108398	-317.912506	45.912487	-121.375084	-172.825912	45.562294	-40.333271	-315.634338	593.243408	-417.280457	-308.957001	409.317230	-339.817719	-313.997223	269.692810	-379.225677	-338.065399	66.668884	-300.159058	-376.003326	43.764980	-258.400269	-212.489319	39.322254	-289.351532
151	1.50000000	-276.477448	1277.926514	-70.029579	-284.619843	1249.770508	-406.008514	-354.378723	1310.508667	-235.302124	-217.174255	1222.355591	-231.490891	-241.323624	987.653931	-12.592534	-297.551514	951.582947	-446.295471	-183.292465	784.891113	-25.512631	-224.025871	758.521118	-454.960434	-221.246658	859.561218	-87.233330	-223.254501	859.826721	-331.576874	-356.957825	882.433228	-153.901535	-394.050812	884.269043	-242.243530	-375.504318	883.351135	-198.072533	-359.685577	1014.284058	-216.772202	-167.551468	1046.778931	-229.396713	-269.610931	640.918884	6.046558	-262.070435	412.737732	-58.119461	-296.005646	286.448822	-1.353706	-282.179260	73.491737	-65.096031	-317.942261	45.868793	-121.340431	-172.870682	45.475086	-40.189072	-315.754547	593.293213	-417.297607	-308.973846	409.298950	-339.831421	-313.943176	269.735199	-379.360352	-338.047089	66.663841	-300.182800	-375.916626	43.707420	-258.447998	-212.518677	39.354343	-289.396454
